G04 #@! TF.FileFunction,Paste,Top*
%FSLAX46Y46*%
G04 Gerber Fmt 4.6, Leading zero omitted, Abs format (unit mm)*
G04 Created by KiCad (PCBNEW 4.0.5) date 2018 May 06, Sunday 20:54:56*
%MOMM*%
%LPD*%
G01*
G04 APERTURE LIST*
%ADD10C,0.100000*%
%ADD11R,0.800000X0.750000*%
%ADD12R,0.750000X0.800000*%
%ADD13R,0.500000X0.600000*%
%ADD14R,0.400000X0.600000*%
%ADD15R,0.500000X0.900000*%
%ADD16R,0.700000X1.300000*%
%ADD17R,1.000000X3.000000*%
%ADD18R,0.500380X2.301240*%
%ADD19R,1.998980X2.499360*%
%ADD20R,2.400000X0.760000*%
%ADD21R,0.900000X0.800000*%
%ADD22R,0.900000X0.500000*%
%ADD23R,0.600000X0.700000*%
%ADD24R,1.850000X0.750000*%
%ADD25R,1.860000X0.750000*%
%ADD26R,0.275000X0.200000*%
%ADD27R,0.200000X0.275000*%
%ADD28R,0.200000X0.800000*%
%ADD29R,0.800000X0.200000*%
%ADD30R,2.800000X2.800000*%
%ADD31R,1.060000X0.650000*%
%ADD32R,0.600000X1.550000*%
%ADD33R,1.150000X1.400000*%
%ADD34R,1.800000X1.000000*%
%ADD35R,0.250000X0.400000*%
%ADD36R,1.500000X1.800000*%
%ADD37R,1.100000X1.500000*%
%ADD38R,2.290000X5.080000*%
%ADD39R,2.420000X5.080000*%
%ADD40R,0.250000X0.500000*%
G04 APERTURE END LIST*
D10*
D11*
X107420000Y-101290000D03*
X108920000Y-101290000D03*
X110650000Y-102790000D03*
X109150000Y-102790000D03*
D12*
X110950000Y-105690000D03*
X110950000Y-107190000D03*
D13*
X112510000Y-112090000D03*
X112510000Y-110990000D03*
X114300000Y-112090000D03*
X114300000Y-110990000D03*
D12*
X115560000Y-98650000D03*
X115560000Y-97150000D03*
D13*
X115900000Y-110990000D03*
X115900000Y-112090000D03*
X110890000Y-110990000D03*
X110890000Y-112090000D03*
D12*
X113970000Y-97160000D03*
X113970000Y-98660000D03*
X119330000Y-110500000D03*
X119330000Y-112000000D03*
X119290000Y-108760000D03*
X119290000Y-107260000D03*
D11*
X120160000Y-102810000D03*
X118660000Y-102810000D03*
X120170000Y-105020000D03*
X118670000Y-105020000D03*
X119080000Y-97170000D03*
X117580000Y-97170000D03*
D13*
X109440000Y-120560000D03*
X109440000Y-119460000D03*
D12*
X90100000Y-102350000D03*
X90100000Y-100850000D03*
D11*
X128060000Y-97810000D03*
X129560000Y-97810000D03*
D12*
X96100000Y-102350000D03*
X96100000Y-100850000D03*
X99610000Y-99610000D03*
X99610000Y-98110000D03*
D11*
X91850000Y-112800000D03*
X93350000Y-112800000D03*
D12*
X91420000Y-106870000D03*
X91420000Y-105370000D03*
D14*
X112600000Y-109020000D03*
X111700000Y-109020000D03*
X114210000Y-109020000D03*
X115110000Y-109020000D03*
D15*
X94170000Y-119370000D03*
X92670000Y-119370000D03*
D16*
X119740000Y-99020000D03*
X117840000Y-99020000D03*
D15*
X90350000Y-99100000D03*
X88850000Y-99100000D03*
D17*
X91600000Y-115800000D03*
X93600000Y-115800000D03*
D18*
X90410200Y-94219320D03*
X89610100Y-94219320D03*
X88810000Y-94219320D03*
X88009900Y-94219320D03*
X87209800Y-94219320D03*
D19*
X93260080Y-94120260D03*
X93260080Y-88621160D03*
X84359920Y-94120260D03*
X84359920Y-88621160D03*
D20*
X129650000Y-104780000D03*
X129650000Y-103510000D03*
X129650000Y-102240000D03*
X129650000Y-100970000D03*
X125750000Y-100970000D03*
X125750000Y-102240000D03*
X125750000Y-103510000D03*
X125750000Y-104780000D03*
X129650000Y-99700000D03*
X125750000Y-99700000D03*
D21*
X105200000Y-99320000D03*
X105200000Y-97420000D03*
X103200000Y-98370000D03*
D22*
X132170000Y-96270000D03*
X132170000Y-94770000D03*
X95540000Y-108800000D03*
X95540000Y-107300000D03*
D15*
X125010000Y-97810000D03*
X126510000Y-97810000D03*
D22*
X101400000Y-97980000D03*
X101400000Y-99480000D03*
X89100000Y-111050000D03*
X89100000Y-109550000D03*
X89100000Y-108050000D03*
X89100000Y-106550000D03*
D15*
X98310000Y-96480000D03*
X99810000Y-96480000D03*
D23*
X133630000Y-91880000D03*
D24*
X134730000Y-88680000D03*
D25*
X134730000Y-93330000D03*
D23*
X133630000Y-90180000D03*
D26*
X114080000Y-114860000D03*
X112800000Y-114860000D03*
D27*
X112840000Y-115310000D03*
X112840000Y-114435000D03*
X113240000Y-115310000D03*
X113240000Y-114435000D03*
X113640000Y-115310000D03*
X113640000Y-114435000D03*
X114040000Y-115310000D03*
X114040000Y-114435000D03*
D28*
X113200000Y-101200000D03*
X113600000Y-101200000D03*
X114000000Y-101200000D03*
X114400000Y-101200000D03*
X114800000Y-101200000D03*
X115200000Y-101200000D03*
X115600000Y-101200000D03*
X116000000Y-101200000D03*
X113200000Y-105200000D03*
X113600000Y-105200000D03*
X114000000Y-105200000D03*
X114400000Y-105200000D03*
X114800000Y-105200000D03*
X115200000Y-105200000D03*
X115600000Y-105200000D03*
X116000000Y-105200000D03*
D29*
X112600000Y-101800000D03*
X116600000Y-101800000D03*
X112600000Y-102200000D03*
X116600000Y-102200000D03*
X112600000Y-102600000D03*
X116600000Y-102600000D03*
X112600000Y-103000000D03*
X116600000Y-103000000D03*
X112600000Y-103400000D03*
X116600000Y-103400000D03*
X112600000Y-103800000D03*
X116600000Y-103800000D03*
X112600000Y-104200000D03*
X116600000Y-104200000D03*
X112600000Y-104600000D03*
X116600000Y-104600000D03*
D30*
X114600000Y-103200000D03*
D31*
X92000000Y-100650000D03*
X92000000Y-101600000D03*
X92000000Y-102550000D03*
X94200000Y-102550000D03*
X94200000Y-100650000D03*
D32*
X99705000Y-106890000D03*
X100975000Y-106890000D03*
X102245000Y-106890000D03*
X103515000Y-106890000D03*
X103515000Y-101490000D03*
X102245000Y-101490000D03*
X100975000Y-101490000D03*
X99705000Y-101490000D03*
D31*
X93700000Y-110750000D03*
X93700000Y-109800000D03*
X93700000Y-108850000D03*
X91500000Y-108850000D03*
X91500000Y-110750000D03*
X91500000Y-109800000D03*
D33*
X108310000Y-105880000D03*
X108310000Y-108080000D03*
X106710000Y-105880000D03*
X106710000Y-108080000D03*
D34*
X121590000Y-108370000D03*
X121590000Y-110870000D03*
D35*
X110670000Y-115400000D03*
X110045000Y-115400000D03*
X109420000Y-115400000D03*
X110670000Y-114750000D03*
X110045000Y-114750000D03*
X109420000Y-114750000D03*
D36*
X125650000Y-122980000D03*
X134650000Y-122980000D03*
D37*
X84280000Y-106500000D03*
X85780000Y-106500000D03*
X84280000Y-109500000D03*
X85780000Y-109500000D03*
D38*
X109440000Y-125860000D03*
D39*
X105060000Y-125860000D03*
X113820000Y-125860000D03*
D40*
X116640000Y-114580000D03*
X117090000Y-114580000D03*
X117540000Y-114580000D03*
X116640000Y-115480000D03*
X117090000Y-115480000D03*
X117540000Y-115480000D03*
M02*
